<svg
          width="213"
          height="133"
          fill="none"
          xmlns="http://www.w3.org/2000/svg"
          id="svg1727907071_11257"
        >
          <g filter="url(#svg1727907071_11257_a)">
            <rect
              x="-71"
              y="13"
              width="238.943"
              height="106.261"
              rx="13.785"
              fill="url(#svg1727907071_11257_b)"
            ></rect>
          </g>
          <path
            d="m-50.703 44.231-2.78-10.025h1.59l1.954 7.764h.093l2.031-7.764h1.576l2.032 7.769h.093l1.948-7.77h1.596l-2.785 10.026h-1.523l-2.11-7.509h-.078l-2.11 7.51h-1.527Zm13.895.152c-.74 0-1.379-.158-1.914-.475a3.222 3.222 0 0 1-1.233-1.346c-.288-.58-.431-1.261-.431-2.041 0-.77.143-1.45.43-2.037a3.345 3.345 0 0 1 1.215-1.375c.522-.33 1.132-.495 1.83-.495.425 0 .836.07 1.234.21.398.141.755.361 1.072.662.317.3.566.69.75 1.17.182.476.273 1.055.273 1.738v.518h-5.977v-1.096h4.543a2.16 2.16 0 0 0-.235-1.023 1.776 1.776 0 0 0-.661-.71c-.28-.173-.61-.26-.989-.26-.411 0-.77.102-1.077.304-.303.2-.538.46-.705.783-.163.32-.245.668-.245 1.043v.857c0 .502.089.93.265 1.282.18.353.429.622.749.808.32.183.693.274 1.12.274.278 0 .531-.04.76-.117a1.573 1.573 0 0 0 .974-.955l1.385.25c-.11.408-.31.765-.597 1.072-.284.303-.641.54-1.072.71-.428.166-.916.25-1.464.25Zm4.968-.152V34.206h1.463v3.725h.088c.085-.156.208-.338.368-.543.16-.206.381-.385.665-.539.284-.156.66-.235 1.126-.235.607 0 1.15.154 1.626.46.476.307.85.75 1.12 1.327.275.578.412 1.273.412 2.085 0 .813-.136 1.51-.406 2.09-.271.578-.643 1.024-1.117 1.337a2.89 2.89 0 0 1-1.62.465c-.457 0-.83-.076-1.121-.23a2.12 2.12 0 0 1-.675-.538 4.074 4.074 0 0 1-.377-.548h-.123v1.17h-1.43Zm1.434-3.76c0 .53.077.993.23 1.391.153.398.375.71.666.935.29.222.646.333 1.067.333.437 0 .803-.116 1.097-.348.293-.234.515-.553.665-.954.154-.402.23-.854.23-1.356a3.74 3.74 0 0 0-.225-1.337 2.046 2.046 0 0 0-.666-.935c-.293-.228-.66-.342-1.1-.342-.425 0-.784.11-1.078.328-.29.218-.51.523-.66.915-.15.392-.226.849-.226 1.37Zm12.712-1.923-1.327.235a1.572 1.572 0 0 0-.264-.485 1.307 1.307 0 0 0-.48-.377c-.202-.097-.455-.146-.759-.146-.414 0-.76.093-1.037.279-.278.182-.416.419-.416.71 0 .25.093.453.279.606.186.154.486.28.9.377l1.195.275c.692.16 1.207.406 1.547.739.34.333.509.765.509 1.297 0 .45-.13.852-.392 1.204-.258.35-.618.623-1.082.823-.46.199-.994.298-1.6.298-.843 0-1.53-.18-2.061-.538-.532-.362-.859-.877-.98-1.542l1.415-.216c.088.37.27.648.544.837.274.186.631.28 1.072.28.48 0 .863-.1 1.15-.3.287-.202.43-.448.43-.738a.768.768 0 0 0-.263-.593c-.173-.16-.44-.28-.798-.362l-1.273-.279c-.702-.16-1.22-.415-1.557-.764-.333-.349-.5-.791-.5-1.326 0-.444.125-.832.373-1.165.248-.333.59-.593 1.028-.779.437-.189.938-.284 1.503-.284.812 0 1.452.177 1.919.529.466.35.775.818.925 1.405Zm1.756 5.683v-7.519h1.464v7.52h-1.464Zm.74-8.679a.93.93 0 0 1-.657-.255.828.828 0 0 1-.269-.616c0-.242.09-.447.27-.617a.92.92 0 0 1 .655-.26c.255 0 .472.087.651.26a.81.81 0 0 1 .274.617.821.821 0 0 1-.274.617.913.913 0 0 1-.65.254Zm6.203 1.16v1.175h-4.107v-1.175h4.107Zm-3.006-1.801h1.464v7.113c0 .284.042.497.127.64a.662.662 0 0 0 .328.29c.137.049.286.073.446.073.117 0 .22-.008.308-.024l.206-.04.264 1.21a2.461 2.461 0 0 1-.362.098 2.869 2.869 0 0 1-.588.058 2.578 2.578 0 0 1-1.077-.205 1.847 1.847 0 0 1-.807-.666c-.206-.3-.309-.677-.309-1.13V34.91Zm7.785 9.472c-.74 0-1.379-.158-1.914-.475a3.221 3.221 0 0 1-1.234-1.346c-.287-.58-.43-1.261-.43-2.041 0-.77.143-1.45.43-2.037A3.345 3.345 0 0 1-6.15 37.11c.522-.33 1.133-.495 1.831-.495.424 0 .836.07 1.234.21.398.141.755.361 1.072.662.316.3.566.69.749 1.17.183.476.274 1.055.274 1.738v.518h-5.977v-1.096h4.543a2.16 2.16 0 0 0-.235-1.023 1.777 1.777 0 0 0-.661-.71c-.28-.173-.61-.26-.99-.26-.41 0-.77.102-1.076.304-.304.2-.539.46-.705.783-.163.32-.245.668-.245 1.043v.857c0 .502.088.93.265 1.282.18.353.429.622.749.808.32.183.693.274 1.12.274.278 0 .53-.04.76-.117a1.573 1.573 0 0 0 .974-.955l1.385.25c-.111.408-.31.765-.597 1.072-.284.303-.642.54-1.072.71-.428.166-.916.25-1.464.25Zm8.121-8.875v-1.302h7.76v1.302h-3.13v8.723H7.028v-8.723H3.905Zm8.576 8.723v-7.519h1.414v1.195h.079c.137-.405.378-.723.724-.955.35-.235.744-.352 1.185-.352a6.175 6.175 0 0 1 .622.034v1.4a2.628 2.628 0 0 0-.314-.054c-.15-.023-.3-.034-.45-.034a1.91 1.91 0 0 0-.925.22 1.637 1.637 0 0 0-.872 1.474v4.591h-1.463Zm7.411.167a3.07 3.07 0 0 1-1.292-.265 2.177 2.177 0 0 1-.916-.778c-.222-.34-.333-.755-.333-1.248 0-.424.082-.774.245-1.048.163-.274.384-.49.661-.65a3.42 3.42 0 0 1 .93-.363 9.258 9.258 0 0 1 1.048-.186l1.096-.127c.281-.036.485-.093.612-.172.127-.078.191-.205.191-.382v-.034c0-.427-.12-.759-.362-.994-.238-.235-.594-.352-1.067-.352-.493 0-.881.11-1.165.328-.281.215-.475.455-.583.72l-1.376-.314c.164-.457.402-.825.715-1.106.317-.284.68-.49 1.092-.617a4.26 4.26 0 0 1 1.297-.196c.3 0 .619.036.955.108.34.069.656.196.95.382.296.186.54.452.729.798.19.343.284.788.284 1.336v4.993h-1.43v-1.028h-.058c-.095.19-.237.376-.426.558-.19.183-.433.335-.73.456-.297.12-.652.18-1.067.18Zm.318-1.175c.405 0 .75-.08 1.038-.24.29-.16.51-.369.66-.627.154-.26.231-.54.231-.837v-.969c-.052.052-.153.101-.303.147a4.69 4.69 0 0 1-.505.113 63.9 63.9 0 0 1-.553.083c-.18.023-.33.042-.45.059a3.632 3.632 0 0 0-.779.18 1.338 1.338 0 0 0-.558.368c-.137.157-.205.365-.205.627 0 .362.133.636.401.822.268.183.609.274 1.023.274Zm8.92-6.51v1.174h-4.248v-1.175h4.249Zm-3.083 7.518v-8.39c0-.47.102-.86.308-1.17a1.89 1.89 0 0 1 .818-.7 2.6 2.6 0 0 1 1.106-.235c.294 0 .545.024.754.073.209.046.364.089.465.128l-.343 1.184a7.1 7.1 0 0 0-.264-.068 1.51 1.51 0 0 0-.392-.044c-.355 0-.61.088-.763.264-.15.176-.226.43-.226.764v8.194h-1.463Zm8.172-7.519v1.175H29.97v-1.175h4.25Zm-3.084 7.52V35.84c0-.47.103-.86.309-1.17.205-.313.478-.547.817-.7.34-.157.708-.235 1.107-.235.293 0 .545.024.753.073.21.046.364.089.466.128l-.343 1.184a7.164 7.164 0 0 0-.264-.068 1.51 1.51 0 0 0-.392-.044c-.356 0-.61.088-.764.264-.15.176-.225.43-.225.764v8.194h-1.464Zm4.595 0v-7.52h1.463v7.52H35.73Zm.739-8.68a.93.93 0 0 1-.656-.255.828.828 0 0 1-.27-.616c0-.242.09-.447.27-.617a.92.92 0 0 1 .656-.26c.254 0 .471.087.65.26.184.17.275.375.275.617a.821.821 0 0 1-.274.617.913.913 0 0 1-.651.254Zm5.86 8.831c-.727 0-1.354-.165-1.88-.494a3.273 3.273 0 0 1-1.203-1.376c-.281-.584-.421-1.253-.421-2.007 0-.764.143-1.438.43-2.022a3.3 3.3 0 0 1 1.214-1.375c.523-.33 1.138-.495 1.846-.495.571 0 1.08.106 1.527.319a2.674 2.674 0 0 1 1.577 2.207h-1.425a1.707 1.707 0 0 0-.538-.91c-.278-.255-.65-.382-1.117-.382-.407 0-.765.108-1.072.323-.303.212-.54.516-.71.91-.17.392-.254.856-.254 1.39 0 .55.083 1.022.25 1.42.166.399.401.707.705.926.306.218.667.328 1.081.328.278 0 .53-.05.754-.152a1.54 1.54 0 0 0 .573-.446c.157-.192.266-.424.328-.695h1.425c-.053.487-.21.92-.475 1.303a2.732 2.732 0 0 1-1.063.9c-.44.219-.957.328-1.551.328Zm10.131-1.836V35.93h1.317v6.618H52.46Zm-2.648-2.653v-1.312h6.618v1.312h-6.618Zm12.666-5.688V44.23h-1.517v-8.508h-.059l-2.398 1.567v-1.45l2.501-1.634h1.473Zm6.203 10.192c-.774-.003-1.434-.207-1.983-.612-.548-.405-.967-.994-1.258-1.767-.29-.774-.436-1.705-.436-2.795 0-1.087.146-2.016.436-2.786.294-.77.715-1.358 1.263-1.762.552-.405 1.21-.607 1.978-.607.767 0 1.424.204 1.973.612.548.404.967.992 1.258 1.762.293.767.44 1.694.44 2.78 0 1.094-.145 2.027-.435 2.8-.29.77-.71 1.36-1.258 1.768-.549.405-1.208.607-1.978.607Zm0-1.307c.679 0 1.209-.331 1.59-.994.386-.662.578-1.62.578-2.873 0-.833-.088-1.536-.264-2.11-.173-.578-.422-1.015-.749-1.312a1.64 1.64 0 0 0-1.155-.45c-.676 0-1.206.332-1.591.998-.385.666-.58 1.624-.583 2.873 0 .836.087 1.543.26 2.12.176.575.426 1.01.749 1.307.323.294.711.44 1.165.44Zm6.968-.23-.073.533c-.05.392-.132.8-.25 1.224-.114.428-.233.824-.357 1.19-.12.365-.22.656-.299.871h-1.038l.177-.822c.075-.343.148-.727.22-1.15.072-.425.126-.857.162-1.298l.048-.548h1.41Zm5.175 1.537c-.774-.003-1.435-.207-1.983-.612s-.968-.994-1.258-1.767c-.29-.774-.436-1.705-.436-2.795 0-1.087.145-2.016.436-2.786.294-.77.715-1.358 1.263-1.762.551-.405 1.21-.607 1.978-.607.767 0 1.424.204 1.972.612.549.404.968.992 1.258 1.762.294.767.441 1.694.441 2.78 0 1.094-.145 2.027-.436 2.8-.29.77-.71 1.36-1.258 1.768-.548.405-1.207.607-1.977.607Zm0-1.307c.678 0 1.209-.331 1.59-.994.386-.662.578-1.62.578-2.873 0-.833-.088-1.536-.264-2.11-.173-.578-.423-1.015-.75-1.312a1.64 1.64 0 0 0-1.154-.45c-.676 0-1.206.332-1.591.998-.385.666-.58 1.624-.583 2.873 0 .836.087 1.543.26 2.12.176.575.425 1.01.749 1.307.323.294.711.44 1.165.44Zm8.898 1.307c-.773-.003-1.434-.207-1.982-.612-.549-.405-.968-.994-1.259-1.767-.29-.774-.435-1.705-.435-2.795 0-1.087.145-2.016.435-2.786.294-.77.715-1.358 1.263-1.762.552-.405 1.211-.607 1.978-.607.767 0 1.425.204 1.973.612.548.404.968.992 1.258 1.762.294.767.44 1.694.44 2.78 0 1.094-.145 2.027-.435 2.8-.29.77-.71 1.36-1.258 1.768-.549.405-1.208.607-1.978.607Zm0-1.307c.679 0 1.21-.331 1.591-.994.385-.662.578-1.62.578-2.873 0-.833-.088-1.536-.265-2.11-.173-.578-.422-1.015-.749-1.312a1.64 1.64 0 0 0-1.155-.45c-.675 0-1.206.332-1.59.998-.386.666-.58 1.624-.584 2.873 0 .836.087 1.543.26 2.12.176.575.426 1.01.749 1.307.323.294.711.44 1.165.44Zm8.899 1.307c-.774-.003-1.435-.207-1.983-.612s-.968-.994-1.258-1.767c-.29-.774-.436-1.705-.436-2.795 0-1.087.145-2.016.436-2.786.294-.77.715-1.358 1.263-1.762.551-.405 1.21-.607 1.978-.607.766 0 1.424.204 1.972.612.549.404.968.992 1.258 1.762.294.767.441 1.694.441 2.78 0 1.094-.145 2.027-.436 2.8-.29.77-.71 1.36-1.258 1.768-.548.405-1.207.607-1.977.607Zm0-1.307c.678 0 1.209-.331 1.59-.994.386-.662.578-1.62.578-2.873 0-.833-.088-1.536-.264-2.11-.173-.578-.423-1.015-.75-1.312a1.64 1.64 0 0 0-1.154-.45c-.676 0-1.206.332-1.591.998-.386.666-.58 1.624-.583 2.873 0 .836.087 1.543.26 2.12.176.575.425 1.01.748 1.307.323.294.712.44 1.166.44Z"
            fill="#fff"
          ></path>
          <rect
            x="-53.768"
            y="66.992"
            width="188.972"
            height="13.211"
            rx="6.605"
            fill="#fff"
          ></rect>
          <rect
            x="-53.768"
            y="89.967"
            width="106.548"
            height="13.211"
            rx="6.605"
            fill="#fff"
          ></rect>
          <defs>
            <linearGradient
              id="svg1727907071_11257_b"
              x1="48.471"
              y1="13"
              x2="48.471"
              y2="119.261"
              gradientUnits="userSpaceOnUse"
            >
              <stop stop-color="#F38744"></stop>
              <stop offset="1" stop-color="#FF7262"></stop>
            </linearGradient>
            <filter
              id="svg1727907071_11257_a"
              x="-73"
              y="0"
              width="285.943"
              height="132.261"
              filterUnits="userSpaceOnUse"
              color-interpolation-filters="sRGB"
            >
              <feFlood flood-opacity="0" result="BackgroundImageFix"></feFlood>
              <feColorMatrix
                in="SourceAlpha"
                values="0 0 0 0 0 0 0 0 0 0 0 0 0 0 0 0 0 0 127 0"
                result="hardAlpha"
              ></feColorMatrix>
              <feOffset dx="2"></feOffset>
              <feGaussianBlur stdDeviation="2"></feGaussianBlur>
              <feColorMatrix
                values="0 0 0 0 0 0 0 0 0 0 0 0 0 0 0 0 0 0 0.05 0"
              ></feColorMatrix>
              <feBlend
                in2="BackgroundImageFix"
                result="effect1_dropShadow_84_633"
              ></feBlend>
              <feColorMatrix
                in="SourceAlpha"
                values="0 0 0 0 0 0 0 0 0 0 0 0 0 0 0 0 0 0 127 0"
                result="hardAlpha"
              ></feColorMatrix>
              <feOffset dx="8"></feOffset>
              <feGaussianBlur stdDeviation="4"></feGaussianBlur>
              <feColorMatrix
                values="0 0 0 0 0 0 0 0 0 0 0 0 0 0 0 0 0 0 0.04 0"
              ></feColorMatrix>
              <feBlend
                in2="effect1_dropShadow_84_633"
                result="effect2_dropShadow_84_633"
              ></feBlend>
              <feColorMatrix
                in="SourceAlpha"
                values="0 0 0 0 0 0 0 0 0 0 0 0 0 0 0 0 0 0 127 0"
                result="hardAlpha"
              ></feColorMatrix>
              <feOffset dx="18"></feOffset>
              <feGaussianBlur stdDeviation="5.5"></feGaussianBlur>
              <feColorMatrix
                values="0 0 0 0 0 0 0 0 0 0 0 0 0 0 0 0 0 0 0.03 0"
              ></feColorMatrix>
              <feBlend
                in2="effect2_dropShadow_84_633"
                result="effect3_dropShadow_84_633"
              ></feBlend>
              <feColorMatrix
                in="SourceAlpha"
                values="0 0 0 0 0 0 0 0 0 0 0 0 0 0 0 0 0 0 127 0"
                result="hardAlpha"
              ></feColorMatrix>
              <feOffset dx="32"></feOffset>
              <feGaussianBlur stdDeviation="6.5"></feGaussianBlur>
              <feColorMatrix
                values="0 0 0 0 0 0 0 0 0 0 0 0 0 0 0 0 0 0 0.01 0"
              ></feColorMatrix>
              <feBlend
                in2="effect3_dropShadow_84_633"
                result="effect4_dropShadow_84_633"
              ></feBlend>
              <feBlend
                in="SourceGraphic"
                in2="effect4_dropShadow_84_633"
                result="shape"
              ></feBlend>
            </filter>
          </defs>
        </svg>