<svg
          width="457"
          height="292"
          fill="none"
          xmlns="http://www.w3.org/2000/svg"
          id="svg-1062443961_6943"
          
        >
          <g filter="url(#svg-1062443961_6943_a)">
            <rect
              x="83"
              y="24"
              width="416"
              height="288"
              rx="24"
              fill="url(#svg-1062443961_6943_b)"
            ></rect>
          </g>
          <path
            d="M167.375 81.5v10.385a1.876 1.876 0 0 1-3.75 0v-5.857l-15.033 15.032a4.378 4.378 0 0 1-6.187 0l-6.465-6.465a.625.625 0 0 0-.885 0l-13.233 13.233a1.87 1.87 0 0 1-2.65 0 1.877 1.877 0 0 1 0-2.653l13.233-13.233a4.377 4.377 0 0 1 6.187 0l6.465 6.465c.245.245.64.245.885 0l15.033-15.032h-5.858a1.876 1.876 0 0 1 0-3.75H165.5a1.873 1.873 0 0 1 1.73 1.16c.095.228.145.47.145.715Zm31.565 39.955V66.909h3.495v54.546h-3.495Zm10.078-37.096c-.198-1.86-1.036-3.31-2.514-4.346-1.463-1.037-3.366-1.556-5.71-1.556-1.648 0-3.061.249-4.24.746-1.179.497-2.081 1.172-2.706 2.024-.625.852-.945 1.826-.959 2.92 0 .908.206 1.697.618 2.364.426.668 1.002 1.236 1.726 1.705a12.15 12.15 0 0 0 2.408 1.15c.88.313 1.768.576 2.663.789l4.091 1.023c1.648.383 3.231.901 4.751 1.555a16.763 16.763 0 0 1 4.113 2.471 10.97 10.97 0 0 1 2.897 3.601c.71 1.407 1.066 3.054 1.066 4.944 0 2.556-.654 4.808-1.961 6.754-1.306 1.932-3.196 3.444-5.667 4.538-2.458 1.08-5.433 1.62-8.928 1.62-3.395 0-6.342-.526-8.842-1.577-2.486-1.051-4.432-2.585-5.838-4.602-1.392-2.018-2.145-4.475-2.259-7.373h7.777c.114 1.52.583 2.784 1.407 3.793.823 1.009 1.896 1.761 3.217 2.259 1.335.497 2.827.745 4.474.745 1.719 0 3.225-.255 4.517-.767 1.307-.525 2.33-1.25 3.069-2.173.738-.938 1.115-2.031 1.129-3.281-.014-1.137-.348-2.074-1.002-2.813-.653-.753-1.569-1.378-2.748-1.875-1.165-.511-2.529-.966-4.091-1.364l-4.965-1.278c-3.593-.923-6.434-2.322-8.522-4.197-2.074-1.89-3.111-4.397-3.111-7.522 0-2.57.696-4.822 2.088-6.754 1.406-1.932 3.317-3.43 5.731-4.496 2.415-1.08 5.15-1.619 8.204-1.619 3.096 0 5.809.54 8.139 1.62 2.344 1.065 4.183 2.55 5.518 4.453 1.335 1.889 2.024 4.062 2.067 6.52h-7.607Zm32.573-11.995V116h-7.905V80.055h-.255l-10.206 6.52v-7.244l10.845-6.967h7.521ZM252.671 116v-5.71l15.149-14.851c1.449-1.463 2.656-2.763 3.622-3.9.966-1.136 1.69-2.236 2.173-3.302a8.16 8.16 0 0 0 .725-3.409c0-1.378-.313-2.557-.938-3.537-.625-.994-1.484-1.761-2.578-2.3-1.094-.54-2.336-.81-3.728-.81-1.435 0-2.692.298-3.772.894a6.164 6.164 0 0 0-2.514 2.493c-.582 1.08-.874 2.365-.874 3.857h-7.521c0-2.77.632-5.178 1.896-7.223 1.265-2.046 3.005-3.63 5.221-4.752 2.23-1.122 4.787-1.683 7.67-1.683 2.926 0 5.497.547 7.713 1.64 2.216 1.094 3.935 2.593 5.156 4.496 1.236 1.904 1.854 4.077 1.854 6.52 0 1.634-.312 3.239-.937 4.816-.625 1.576-1.726 3.323-3.303 5.241-1.562 1.918-3.757 4.24-6.584 6.967l-7.521 7.65v.298h19.006V116h-29.915Zm46.406-5.966-.277 2.344a34.883 34.883 0 0 1-1.065 5.454 67.54 67.54 0 0 1-1.577 5.135 175.354 175.354 0 0 1-1.342 3.686h-5.199c.199-.866.469-2.045.809-3.537a84.852 84.852 0 0 0 1.023-5.028c.327-1.861.547-3.75.661-5.668l.149-2.386h6.818Zm22.985 6.797c-3.509 0-6.52-.888-9.034-2.663-2.5-1.79-4.425-4.368-5.774-7.735-1.336-3.38-2.003-7.45-2.003-12.209.014-4.758.689-8.806 2.024-12.145 1.349-3.352 3.274-5.908 5.774-7.67 2.514-1.761 5.518-2.642 9.013-2.642 3.494 0 6.498.88 9.013 2.642 2.514 1.761 4.438 4.318 5.774 7.67 1.349 3.353 2.024 7.401 2.024 12.145 0 4.773-.675 8.85-2.024 12.231-1.336 3.366-3.26 5.937-5.774 7.713-2.5 1.775-5.505 2.663-9.013 2.663Zm0-6.669c2.727 0 4.879-1.342 6.456-4.027 1.591-2.699 2.386-6.67 2.386-11.91 0-3.466-.362-6.378-1.087-8.736-.724-2.358-1.747-4.134-3.068-5.327-1.321-1.208-2.883-1.811-4.687-1.811-2.713 0-4.858 1.35-6.435 4.048-1.577 2.685-2.372 6.627-2.386 11.825-.014 3.48.334 6.407 1.044 8.779.724 2.372 1.747 4.162 3.068 5.369 1.321 1.193 2.891 1.79 4.709 1.79Zm40.019 6.669c-3.508 0-6.52-.888-9.034-2.663-2.5-1.79-4.424-4.368-5.774-7.735-1.335-3.38-2.003-7.45-2.003-12.209.014-4.758.689-8.806 2.024-12.145 1.35-3.352 3.275-5.908 5.775-7.67 2.514-1.761 5.518-2.642 9.012-2.642 3.495 0 6.499.88 9.013 2.642 2.514 1.761 4.439 4.318 5.774 7.67 1.35 3.353 2.024 7.401 2.024 12.145 0 4.773-.674 8.85-2.024 12.231-1.335 3.366-3.26 5.937-5.774 7.713-2.5 1.775-5.504 2.663-9.013 2.663Zm0-6.669c2.728 0 4.88-1.342 6.456-4.027 1.591-2.699 2.387-6.67 2.387-11.91 0-3.466-.363-6.378-1.087-8.736-.724-2.358-1.747-4.134-3.068-5.327-1.321-1.208-2.884-1.811-4.688-1.811-2.713 0-4.858 1.35-6.434 4.048-1.577 2.685-2.372 6.627-2.387 11.825-.014 3.48.334 6.407 1.044 8.779.725 2.372 1.747 4.162 3.069 5.369 1.321 1.193 2.89 1.79 4.708 1.79Zm40.02 6.669c-3.509 0-6.52-.888-9.034-2.663-2.5-1.79-4.425-4.368-5.774-7.735-1.336-3.38-2.003-7.45-2.003-12.209.014-4.758.689-8.806 2.024-12.145 1.349-3.352 3.274-5.908 5.774-7.67 2.514-1.761 5.519-2.642 9.013-2.642 3.494 0 6.498.88 9.013 2.642 2.514 1.761 4.439 4.318 5.774 7.67 1.349 3.353 2.024 7.401 2.024 12.145 0 4.773-.675 8.85-2.024 12.231-1.335 3.366-3.26 5.937-5.774 7.713-2.5 1.775-5.505 2.663-9.013 2.663Zm0-6.669c2.727 0 4.879-1.342 6.456-4.027 1.591-2.699 2.386-6.67 2.386-11.91 0-3.466-.362-6.378-1.086-8.736-.725-2.358-1.748-4.134-3.069-5.327-1.321-1.208-2.883-1.811-4.687-1.811-2.713 0-4.858 1.35-6.435 4.048-1.577 2.685-2.372 6.627-2.386 11.825-.014 3.48.334 6.407 1.044 8.779.724 2.372 1.747 4.162 3.068 5.369 1.321 1.193 2.891 1.79 4.709 1.79Z"
            fill="#fff"
          ></path>
          <rect
            x="113"
            y="159"
            width="329"
            height="23"
            rx="11.5"
            fill="#fff"
          ></rect>
          <rect
            x="113"
            y="199"
            width="254"
            height="23"
            rx="11.5"
            fill="#fff"
          ></rect>
          <rect
            x="113"
            y="239"
            width="185.5"
            height="23"
            rx="11.5"
            fill="#fff"
          ></rect>
          <defs>
            <linearGradient
              id="svg-1062443961_6943_b"
              x1="291"
              y1="24"
              x2="291"
              y2="312"
              gradientUnits="userSpaceOnUse"
            >
              <stop stop-color="#F38744"></stop>
              <stop offset="1" stop-color="#FF7262"></stop>
            </linearGradient>
            <filter
              id="svg-1062443961_6943_a"
              x="0"
              y="0"
              width="503"
              height="336"
              filterUnits="userSpaceOnUse"
              color-interpolation-filters="sRGB"
            >
              <feFlood flood-opacity="0" result="BackgroundImageFix"></feFlood>
              <feColorMatrix
                in="SourceAlpha"
                values="0 0 0 0 0 0 0 0 0 0 0 0 0 0 0 0 0 0 127 0"
                result="hardAlpha"
              ></feColorMatrix>
              <feOffset dx="-4"></feOffset>
              <feGaussianBlur stdDeviation="4"></feGaussianBlur>
              <feColorMatrix
                values="0 0 0 0 0 0 0 0 0 0 0 0 0 0 0 0 0 0 0.05 0"
              ></feColorMatrix>
              <feBlend
                in2="BackgroundImageFix"
                result="effect1_dropShadow_84_620"
              ></feBlend>
              <feColorMatrix
                in="SourceAlpha"
                values="0 0 0 0 0 0 0 0 0 0 0 0 0 0 0 0 0 0 127 0"
                result="hardAlpha"
              ></feColorMatrix>
              <feOffset dx="-15"></feOffset>
              <feGaussianBlur stdDeviation="7.5"></feGaussianBlur>
              <feColorMatrix
                values="0 0 0 0 0 0 0 0 0 0 0 0 0 0 0 0 0 0 0.04 0"
              ></feColorMatrix>
              <feBlend
                in2="effect1_dropShadow_84_620"
                result="effect2_dropShadow_84_620"
              ></feBlend>
              <feColorMatrix
                in="SourceAlpha"
                values="0 0 0 0 0 0 0 0 0 0 0 0 0 0 0 0 0 0 127 0"
                result="hardAlpha"
              ></feColorMatrix>
              <feOffset dx="-33"></feOffset>
              <feGaussianBlur stdDeviation="10"></feGaussianBlur>
              <feColorMatrix
                values="0 0 0 0 0 0 0 0 0 0 0 0 0 0 0 0 0 0 0.03 0"
              ></feColorMatrix>
              <feBlend
                in2="effect2_dropShadow_84_620"
                result="effect3_dropShadow_84_620"
              ></feBlend>
              <feColorMatrix
                in="SourceAlpha"
                values="0 0 0 0 0 0 0 0 0 0 0 0 0 0 0 0 0 0 127 0"
                result="hardAlpha"
              ></feColorMatrix>
              <feOffset dx="-59"></feOffset>
              <feGaussianBlur stdDeviation="12"></feGaussianBlur>
              <feColorMatrix
                values="0 0 0 0 0 0 0 0 0 0 0 0 0 0 0 0 0 0 0.01 0"
              ></feColorMatrix>
              <feBlend
                in2="effect3_dropShadow_84_620"
                result="effect4_dropShadow_84_620"
              ></feBlend>
              <feBlend
                in="SourceGraphic"
                in2="effect4_dropShadow_84_620"
                result="shape"
              ></feBlend>
            </filter>
          </defs>
        </svg>